<?xml version="1.0" encoding="UTF-8"?>
<svg version="1.1" viewBox="0 0 2048 1364" width="800" height="533" xmlns="http://www.w3.org/2000/svg">
<path transform="translate(0)" d="m0 0h2048v1364h-2048z" fill="#F2F2F2"/>
<path transform="translate(1e3 467)" d="m0 0h112l29 1 36 3 24 4 27 7 21 8 23 11 24 14 9 8v5l-5 4-24 6-57 11-40 7-20 2 8 16 4 10-1 3-7-11-12-14-1-3-72 2-140 1-45 1-56 3-11 1 26 1 64 1 127 4 45 2 47 1 1 2h-47l-289-1h-55l-158 1-49 2-43 3-41 4-44 6-37 7-32 8-27 9-18 8-13 7-12 9-4 4 137 1 12 3 6 5 4 8 1 3v143l-4 8-8 7-6 2h-124v-130h48l1 90 41-1 1-99h-154v-7l-3-1 1-13 1-3 4-1 7-15-8-2 2-4 4-5 11-9 15-10 23-11 21-8 29-8 31-7 44-7 49-5 22-2 42-7 52-6 45-4 14-1h11l12 18 26 2 29 1h18l28-1 10-2-1-2h-15l5-5 24-15 29-17 18-10 22-12 40-20 23-9 16-4 24-3 29-2z"/>
<path transform="translate(1271,431)" d="m0 0h3l-1 10-1 8 9 8 40 9 36 9 42 12 50 16 46 16 25 9 22 6 15 3 79 1 40 2 10 1-1 9-4 13 5 19 3 24 14 18v61l-1 1h-152v31h78l1 37-1 1-78 1v28h92l1 2-12 34-2 5-3 1h-125l-1-2v-174l1-4 129-1h24l7-2-1-6-10-17-8-17-1-4-2-24-3-5-10-5-16-4-22-3-24-2-24-1-64-1h-59l-54 2-54 4-47 5-49 7-17 3h-6l2-2 27-8 36-9 43-9 55-9 44-5 27-3 6-2-1-3-23-11-15-7-27-11-36-12-32-9-36-8-35-6-44-5-44-3h-130l-43 3-29 4-26 6-23 8-30 14-30 15-23 13-22 13-24 15-27 18-8 5h-22l-33-2 1-3 28-16 26-14 27-14 17-9 28-13 26-12 37-15 28-10 19-6 25-5 30-4 38-3 20-1 40-1h29l43 1 40 2 43 4 13 1 19-9 16-5z" fill="#EF182C"/>
<path transform="translate(234,840)" d="m0 0h166l945 1v24h-1054l-20-8-29-12-8-4z"/>
<path transform="translate(441,646)" d="m0 0h119l9 2 7 4 6 9 1 4v63l-3 8-7 8-11 4-15 1 19 39 11 23 6 14h-51l-32-68-4-11v-25l1-4h35v-32h-44l1 11 1 102v27h-49z"/>
<path transform="translate(999,646)" d="m0 0h140l-1 7-11 30-1 2-78 1v99h43v-30h-27v-38h75v108h-141v-177z"/>
<path transform="translate(850,646)" d="m0 0h141v122l-1 57h-48l-1-140-42-1v41l-1 100h-48z"/>
<path transform="translate(1353,646)" d="m0 0h141l1 1v35l-1 4h-92v31h78l1 9-1 29-78 1v110l-9 4-36 13h-4l-1-85v-149z" fill="#EF192A"/>
<path transform="translate(646,646)" d="m0 0h48l7 26 15 57 1 2 20-76 3-9h47l-2 12-14 53-14 55-15 58-1 1h-49l-23-89-19-73z"/>
<path transform="translate(1148,646)" d="m0 0h49l1 139h77l4 8 11 31v2h-141l-1-1z" fill="#EF192A"/>
<path transform="translate(1297,646)" d="m0 0h48l1 2-1 177-1 1h-47l-1-1v-178z" fill="#EF182B"/>
<path transform="translate(794,646)" d="m0 0h48v179h-48z"/>
<path transform="translate(591,646)" d="m0 0h48v160l-1 19h-47z"/>
<path transform="translate(1697,785)" d="m0 0h46l5 2 2 2-1 10-20 59-7 6-2 1h-51l-4-4 1-9 19-56 4-6 4-4z" fill="#E8008E"/>
<path transform="translate(1410,841)" d="m0 0h212l-2 9-5 14-2 1h-203z"/>
<path transform="translate(1765,785)" d="m0 0h61l1 2-6 16-40 1-4 12h32l5 5-2 10-8 24-4 6-4 3-5 1-53 1-2-1 3-11 3-7 40-1 4-12h-29l-6-2-2-2 1-8 12-36z" fill="#E8008E"/>
<path transform="translate(1071,611)" d="m0 0h92l-1 4-23 4-11 7-5 1h-17l-7-3-7-5-14-3-6-2z"/>
<path transform="translate(1707,803)" d="m0 0h16l-3 11-10 30-2 3h-15l-1-2 14-41z" fill="#F3F3F3"/>
<path transform="translate(1633,840)" d="m0 0h26l-3 11-5 13-1 1h-25l1-7 6-17z" fill="#E8008E"/>
<path transform="translate(838,532)" d="m0 0h6l3 5 1 8-1 4-7 3-11 1-5-3-1-5 3-5 7-6z" fill="#F1DCE9"/>
<path transform="translate(1107,594)" d="m0 0h16l8 3 3 2v2l-5-1h-28l-5 1v-2l7-4z"/>
</svg>
